<svg width="500" height="34" viewBox="0 0 500 34" fill="none" xmlns="http://www.w3.org/2000/svg">
<path fill-rule="evenodd" clip-rule="evenodd" d="M246.569 6.70215H257.739L257.805 10.0677L249.869 10.0265V29.9037L246.569 30.049V6.70215Z" fill="white"/>
<path fill-rule="evenodd" clip-rule="evenodd" d="M261.74 30.049L265.039 29.9105V24.1041L274.083 17.4101H274.083L274.105 13.409L265.039 6.70215H261.74V30.049ZM265.039 20.0862V10.7156L271.369 15.401L265.039 20.0862Z" fill="white"/>
<path fill-rule="evenodd" clip-rule="evenodd" d="M286.343 6.36426L289.26 8.01411L281.272 18.2691L289.58 28.4559L286.808 30.2494L277.057 18.3162H277.058L277.057 18.316L286.343 6.36426Z" fill="white"/>
<path fill-rule="evenodd" clip-rule="evenodd" d="M283.691 18.1674L285.718 15.5879L288.043 18.2074L285.919 20.7609L283.691 18.1674Z" fill="white"/>
<path fill-rule="evenodd" clip-rule="evenodd" d="M316.802 6.36426L319.719 8.01411L311.731 18.2691L320.039 28.4559L317.266 30.2494L307.516 18.3162L307.516 18.316L316.802 6.36426Z" fill="white"/>
<path fill-rule="evenodd" clip-rule="evenodd" d="M314.15 18.1674L316.177 15.5879L318.502 18.2074L316.378 20.7609L314.15 18.1674Z" fill="white"/>
<path fill-rule="evenodd" clip-rule="evenodd" d="M331.065 6.36426L333.981 8.01411L325.994 18.2691L334.302 28.4559L331.529 30.2494L321.779 18.3162H321.779L321.779 18.316L331.065 6.36426Z" fill="white"/>
<path fill-rule="evenodd" clip-rule="evenodd" d="M337.936 6.70247H341.236V14.8018L347.791 6.36426L350.708 8.01411L342.72 18.2687L351.028 28.4559L348.256 30.2494L341.236 21.6582V29.9048L337.936 30.0493V6.70247Z" fill="white"/>
<path fill-rule="evenodd" clip-rule="evenodd" d="M354.657 6.70215H357.957V18.5343L365.093 9.51121V6.70215H368.392V29.9044L365.093 30.049V14.815L357.957 23.8474V29.9044L354.657 30.049V6.70215Z" fill="white"/>
<path fill-rule="evenodd" clip-rule="evenodd" d="M372.409 6.70215H375.709V18.5341L382.844 9.51121V6.70215H386.144V29.9044L382.844 30.049V14.815L375.709 23.8474V29.9044L372.409 30.049V6.70215Z" fill="white"/>
<path fill-rule="evenodd" clip-rule="evenodd" d="M381.188 1.30566L383.299 3.22162L379.573 7.35534L377.48 5.43153L381.188 1.30566Z" fill="white"/>
<path fill-rule="evenodd" clip-rule="evenodd" d="M301.257 6.83708L304.557 6.70215V29.9271L301.257 30.049V22.1365L294.169 23.416L292.143 22.1315L292.15 6.83494L295.45 6.70215V19.9033L301.257 18.8547V6.83708Z" fill="white"/>
<path fill-rule="evenodd" clip-rule="evenodd" d="M414.066 6.68457L422.259 18.1619L413.522 30.0448L410.769 30.0535L402.026 18.1619L410.217 6.68671L414.066 6.68457ZM412.142 9.71601L406.096 18.1371L412.142 26.3575L418.188 18.1371L412.142 9.71601Z" fill="white"/>
<path fill-rule="evenodd" clip-rule="evenodd" d="M409.911 18.1245L411.938 15.3633L414.263 18.1672L412.139 20.9006L409.911 18.1245Z" fill="white"/>
<path fill-rule="evenodd" clip-rule="evenodd" d="M429.447 6.70155L429.448 6.70173L432.527 6.69727L439.668 29.5337L436.449 30.2156L431.042 12.9431L425.934 30.2219L422.703 29.5401L429.447 6.70155Z" fill="white"/>
<path fill-rule="evenodd" clip-rule="evenodd" d="M443.375 6.70215H446.674V18.5343L453.81 9.51121V6.70215H457.11V29.9044L453.81 30.049V14.815L446.674 23.8474V29.9044L443.375 30.049V6.70215Z" fill="white"/>
<path fill-rule="evenodd" clip-rule="evenodd" d="M484.546 6.70215C489.124 6.70215 493.703 6.70215 498.281 6.70215V29.9044L494.981 30.049V10.0572L487.845 10.0202V29.9044L484.546 30.049V6.70215Z" fill="white"/>
<path fill-rule="evenodd" clip-rule="evenodd" d="M462.767 6.53906L466.079 6.77894L465.954 8.15607L470.813 17.4166L475.671 8.15589L475.546 6.77894L478.859 6.53906L480.956 29.8947L477.657 30.0719L476.221 14.2256L472.248 21.7611H469.377L465.404 14.2257L463.968 30.0719L460.67 29.8947L462.767 6.53906Z" fill="white"/>
<path fill-rule="evenodd" clip-rule="evenodd" d="M70.6026 6.08594L73.7597 7.03472L64.7599 30.3898L61.5775 29.477L64.7782 21.1816L59.3394 7.06096L62.5237 6.17803L66.5453 16.601L70.6026 6.08594Z" fill="white"/>
<path fill-rule="evenodd" clip-rule="evenodd" d="M90.5562 6.70215L90.635 10.0677L85.5439 10.0456V29.9044L82.2445 30.049V10.0315L77.2141 10.0097L77.1536 6.70215C81.6212 6.70215 86.0886 6.70215 90.5562 6.70215Z" fill="white"/>
<path fill-rule="evenodd" clip-rule="evenodd" d="M94.2471 6.70215H97.5468V18.5343L104.683 9.51121V6.70215H107.982V29.9044L104.683 30.049V14.815L97.5468 23.8474V29.9044L94.2471 30.049V6.70215Z" fill="white"/>
<path fill-rule="evenodd" clip-rule="evenodd" d="M112.213 6.7015H115.513V14.8006L122.068 6.36328L124.985 8.01313L116.997 18.2677L125.306 28.4549L122.533 30.2484L115.513 21.6572V29.9038L112.213 30.0483V6.7015Z" fill="white"/>
<path fill-rule="evenodd" clip-rule="evenodd" d="M127.286 19.2809L127.115 15.9727H134.924L135.003 19.338L127.286 19.2809Z" fill="white"/>
<path fill-rule="evenodd" clip-rule="evenodd" d="M152.046 6.68457L160.239 18.1619L151.503 30.0448L148.749 30.0535L140.006 18.1619L148.197 6.68671L152.046 6.68457ZM150.123 9.71601L144.077 18.1371L150.123 26.3575L156.169 18.1371L150.123 9.71601Z" fill="white"/>
<path fill-rule="evenodd" clip-rule="evenodd" d="M147.891 18.1245L149.918 15.3633L152.243 18.1672L150.119 20.9006L147.891 18.1245Z" fill="white"/>
<path fill-rule="evenodd" clip-rule="evenodd" d="M174.38 6.70215L174.459 10.0677L169.368 10.0456V29.9044L166.069 30.049V10.0315L161.038 10.0097L160.978 6.70215C165.445 6.70215 169.913 6.70215 174.38 6.70215Z" fill="white"/>
<path fill-rule="evenodd" clip-rule="evenodd" d="M184.62 6.36328L187.537 8.01313L179.549 18.2677L187.858 28.4549L185.085 30.2484L175.334 18.3152L175.335 18.315L184.62 6.36328Z" fill="white"/>
<path fill-rule="evenodd" clip-rule="evenodd" d="M181.969 18.1665L183.995 15.5869L186.321 18.2064L184.197 20.7599L181.969 18.1665Z" fill="white"/>
<path fill-rule="evenodd" clip-rule="evenodd" d="M197.082 6.70155L197.082 6.70173L200.162 6.69727L207.302 29.5337L204.083 30.2156L198.676 12.9431L193.568 30.2219L190.338 29.5401L197.082 6.70155Z" fill="white"/>
<path fill-rule="evenodd" clip-rule="evenodd" d="M210.42 6.70215H213.719V12.6472L222.762 19.341L222.785 23.3422L213.719 30.049H210.42V6.70215ZM213.719 16.665V26.0354L220.048 21.3502L213.719 16.665Z" fill="white"/>
<path fill-rule="evenodd" clip-rule="evenodd" d="M44.9307 6.70215H56.101L56.1667 10.0677L48.2302 10.0265V12.6471L57.2732 19.341L57.2957 23.3422L48.2302 30.049H44.9307V6.70215ZM48.2302 16.6648L54.5593 21.3502L48.2302 26.0356V16.6648Z" fill="white"/>
<path d="M15.2988 33.3353C23.592 33.3353 30.315 26.6302 30.315 18.3591C30.315 10.0879 23.592 3.38281 15.2988 3.38281C7.00549 3.38281 0.282471 10.0879 0.282471 18.3591C0.282471 26.6302 7.00549 33.3353 15.2988 33.3353Z" fill="white"/>
<path fill-rule="evenodd" clip-rule="evenodd" d="M19.1451 14.9755C19.1775 15.5907 19.1818 17.7722 19.1739 20.5877C19.3052 20.5104 19.4642 20.4567 19.6374 20.4317C19.6558 18.1102 19.6683 16.391 19.6683 15.9735C19.6683 15.805 19.6839 15.5766 19.6825 15.376C19.6787 14.828 19.8797 14.6335 20.1166 14.6098C20.3724 14.5842 20.6651 14.77 20.651 15.2789C20.6499 15.3215 20.6487 15.3651 20.6487 15.4093C20.6485 15.8343 20.6526 17.6855 20.6574 20.1654L20.94 19.9946L21.1963 19.8076C21.2038 19.7683 21.2117 19.7305 21.2201 19.6941C21.2283 18.1957 21.2256 16.7188 21.2057 15.2826C21.1986 14.7736 21.4495 14.5942 21.6968 14.5973C21.9373 14.6003 22.1741 14.7724 22.1669 15.202C22.1662 15.2416 22.1653 15.283 22.1655 15.326L22.1662 18.746C22.3221 18.5941 22.5243 18.4984 22.7492 18.4308C22.7539 17.4319 22.7544 16.429 22.7496 15.4199C22.7462 14.6887 22.9842 14.6128 23.2111 14.6128C23.6202 14.6128 23.678 14.9621 23.6777 15.2841C23.6775 15.6744 23.6825 16.7626 23.6904 18.2523C23.869 18.2273 24.044 18.2036 24.2208 18.172C24.2256 16.6294 24.2365 15.4611 24.2578 14.9592C24.2684 14.7104 24.355 14.5775 24.54 14.8391C25.205 15.7797 26.7659 15.3169 27.078 14.2828C27.3294 13.4498 27.0132 12.4359 25.7041 12.3847C23.3711 12.2933 20.2188 12.3069 17.894 12.3695C16.2891 12.4127 15.889 14.41 17.2263 15.0636C17.8069 15.3472 18.5919 15.2999 18.9302 14.9035C19.1111 14.6915 19.1313 14.7144 19.1451 14.9755ZM19.3913 32.2509L19.3911 32.251L19.4448 32.235L19.3913 32.2509ZM22.159 21.9896L22.1105 31.1438C22.2734 31.0572 22.4343 30.9678 22.5932 30.8755C22.6231 27.715 22.6796 24.569 22.7167 21.4885C22.6334 21.5288 22.5552 21.5838 22.4824 21.658C22.3709 21.7714 22.2634 21.8818 22.159 21.9896ZM23.7109 21.3917C23.7263 24.1876 23.7451 27.4171 23.7573 30.1229C23.9187 30.0072 24.0774 29.8882 24.2338 29.7661C24.2306 27.1789 24.2206 24.1094 24.2181 21.3962C24.0703 21.3989 23.9153 21.3969 23.7483 21.3928L23.7109 21.3917Z" fill="#1C5ED9"/>
<path fill-rule="evenodd" clip-rule="evenodd" d="M25.7597 12.7512C24.6932 12.7052 19.1073 12.7378 18.7631 12.7373C18.1035 12.7362 17.5663 12.6504 17.1617 13.04C16.54 13.6388 16.8106 14.5558 17.5491 14.8182C18.2461 15.0659 18.9671 14.7396 18.6332 14.249C18.5393 14.1109 18.4251 14.0786 18.3125 14.058C18.036 14.0081 17.8601 13.9042 17.8787 13.5872C17.9036 13.1599 18.3199 13.1953 18.6441 13.1937C20.7871 13.1833 22.9321 13.2117 25.0765 13.2003C25.9913 13.1953 25.8132 13.9044 25.2363 13.9874C24.7431 14.0584 24.6815 14.7393 25.3272 14.8772C25.7012 14.9572 26.2261 14.8532 26.5613 14.4493C27.1128 13.7844 26.6232 12.7883 25.7597 12.7512Z" fill="white"/>
<path fill-rule="evenodd" clip-rule="evenodd" d="M19.1715 14.1809L24.4325 14.1648C24.5117 13.8907 24.6647 13.7497 24.7907 13.5928L18.7625 13.585C19.0321 13.7733 19.0903 13.9266 19.1715 14.1809Z" fill="white"/>
<path fill-rule="evenodd" clip-rule="evenodd" d="M17.2067 32.7099C17.1625 31.3533 17.0987 30.09 17.0618 28.543C17.0437 27.7814 16.7527 22.0805 16.4805 20.5209C16.3642 19.854 16.2511 19.726 16.2667 20.0799C16.4596 24.4608 15.7597 28.8433 15.1155 32.8327C15.1765 32.8334 15.2375 32.8345 15.2987 32.8345C15.9457 32.8345 16.5822 32.7916 17.2067 32.7099Z" fill="#1C5ED9"/>
<path fill-rule="evenodd" clip-rule="evenodd" d="M17.2208 22.7857C17.1643 22.138 17.0166 21.369 16.8373 20.7307C16.7469 20.4097 16.7969 20.3973 16.9415 20.5585C17.3196 20.9799 17.5617 21.2492 18.0032 21.6354C18.1043 21.7238 18.16 21.7813 18.0059 21.8849C17.6884 22.0988 17.3625 22.4566 17.2208 22.7857Z" fill="#1C5ED9"/>
<path fill-rule="evenodd" clip-rule="evenodd" d="M6.99334 28.4001C8.34463 30.4521 11.6961 29.2441 12.6428 25.9102C11.8763 25.9746 11.3767 26.0636 11.1632 26.5211C10.3672 28.2257 9.86217 28.394 7.25784 27.7817C6.79363 27.6724 6.73189 28.0033 6.99334 28.4001Z" fill="#1C5ED9"/>
<path fill-rule="evenodd" clip-rule="evenodd" d="M10.5943 16.1223C11.495 16.6472 12.6294 16.7982 13.1479 16.0461C13.2814 15.8526 13.3508 15.9692 13.4097 16.2342C13.7686 17.8521 13.9768 21.5687 12.607 22.4404C11.1097 23.393 10.2311 23.5552 9.13532 22.4351C8.5913 21.8787 9.17398 23.0155 9.39355 23.1586C8.70243 23.2448 8.30587 22.7263 8.2554 22.1018C8.14552 20.7397 7.84542 18.5451 6.83772 17.5137C6.40393 17.0698 6.58146 17.4352 6.80873 17.8871C7.46335 19.1882 7.75361 20.6299 7.80426 21.9785C7.81231 22.1934 7.74574 22.2223 7.54674 22.0271C7.15465 21.6424 6.70171 20.6688 6.5768 20.3326C6.43078 19.9394 6.33539 19.9744 6.40089 20.3681C6.54746 21.2509 6.87351 21.8752 7.54316 22.4838C7.83378 22.7478 8.03189 23.0371 7.51793 22.898C6.81213 22.7071 5.4807 22.409 4.76739 23.3871C4.49878 23.7549 4.735 23.6482 5.10776 23.4265C5.65089 23.1033 6.33969 23.0815 6.95136 23.2437C7.16431 23.3001 7.42398 23.4306 7.23285 23.4867C6.83969 23.6021 6.41861 23.9022 6.1525 24.1957C5.88443 24.4915 5.99896 24.5165 6.45028 24.2563C7.82072 23.466 7.86277 23.6453 9.37763 23.6585C8.87995 23.9316 8.71728 24.3057 8.40519 24.7119C7.67183 25.666 6.51149 25.527 5.21836 25.1867C4.58736 25.0205 4.39212 25.0621 5.23822 25.4164C7.33486 26.2946 8.04227 25.9129 8.9229 24.5061C9.20959 24.0483 9.87047 23.3731 10.4839 23.6471C10.6475 23.7203 10.5822 23.786 10.4991 23.8806C9.93704 24.5202 9.36385 26.4415 9.78153 27.225C9.89427 27.4362 9.94474 27.5227 9.58736 27.575C8.22838 27.774 6.26614 26.7501 5.29316 26.1319C4.17827 25.4233 3.45046 24.9562 3.49484 23.7649C3.54262 22.4797 4.14409 18.3677 4.86743 17.2314C5.51363 16.2162 6.79656 15.4668 8.15769 15.0905C8.53099 14.9872 8.65179 15.0648 9.0097 15.2344C9.53779 15.4844 10.0843 15.8248 10.5943 16.1223Z" fill="#1C5ED9"/>
<path fill-rule="evenodd" clip-rule="evenodd" d="M17.4326 26.237C17.5757 24.842 17.7776 23.6723 18.2296 22.3421C18.3723 21.9223 18.3767 21.9296 18.0414 22.2436C16.9909 23.2261 17.2423 24.9334 17.4326 26.237Z" fill="#1C5ED9"/>
<path fill-rule="evenodd" clip-rule="evenodd" d="M20.8822 23.7953C20.8749 23.3348 20.3486 23.7932 20.122 24.0857C19.9239 25.5322 20.4091 28.6279 20.6095 30.0772C20.6605 30.4461 20.7452 30.2867 20.8153 29.9519C21.1484 28.3608 20.9093 25.5087 20.8822 23.7953Z" fill="#1C5ED9"/>
<path fill-rule="evenodd" clip-rule="evenodd" d="M19.3416 32.2124C19.9627 32.0373 20.5449 31.7489 20.394 31.1261C20.1168 29.9821 19.6905 25.6463 19.7592 24.5557C18.9466 25.9251 19.2685 30.8186 19.3416 32.2124Z" fill="#1C5ED9"/>
<path fill-rule="evenodd" clip-rule="evenodd" d="M13.5269 22.2023C13.8846 22.2109 14.0922 22.2699 14.4739 22.3974C14.769 21.392 15.3191 16.6634 13.6278 16.0332C14.1532 17.7673 14.1494 20.6904 13.5269 22.2023Z" fill="#1C5ED9"/>
<path fill-rule="evenodd" clip-rule="evenodd" d="M11.1995 25.2727C11.8084 25.3024 12.0311 25.4653 12.6901 25.3759C13.1347 25.3156 13.5042 25.2456 13.6631 25.257C14.1783 25.2936 14.2701 24.8872 13.7666 24.76C13.5241 24.6986 12.855 24.6695 13.1665 24.5924C13.426 24.5281 13.955 24.6415 14.1264 24.6593C14.4917 24.697 14.5498 24.3907 14.3886 24.2933C14.2369 24.2017 13.8863 24.1091 13.6642 24.0491C13.5015 24.005 13.1669 23.9354 13.4183 23.8815C13.657 23.8301 14.0538 23.9383 14.309 24.0302C14.7088 24.1742 14.8385 23.8131 14.5753 23.6434C14.2739 23.4489 13.8016 23.2904 13.5137 23.2795C13.3632 23.2738 13.3229 23.184 13.555 23.1713C13.9613 23.1492 14.3272 23.3214 14.5912 23.4239C14.9274 23.5547 15.0484 23.1649 14.8351 23.0409C14.3772 22.7742 13.7599 22.5395 13.2308 22.6518C12.5592 22.7944 11.6017 23.3612 11.0665 23.6936C10.6798 23.9338 10.4752 24.5674 10.5171 25.0054C10.5339 25.1812 11.0189 25.2638 11.1995 25.2727Z" fill="#1C5ED9"/>
<path fill-rule="evenodd" clip-rule="evenodd" d="M17.7676 32.6252C17.7424 31.7997 17.6971 30.999 17.645 30.1797C17.5942 27.382 17.6993 24.6983 18.8428 21.7803C19.0481 21.2567 19.3514 20.6564 19.8482 20.7082C19.5885 20.8985 19.4903 21.1612 19.4051 21.5297C18.6916 24.617 18.8507 28.9098 18.804 32.1302C18.8029 32.2164 18.8043 32.3087 18.8077 32.4083C18.4657 32.4931 18.1187 32.5652 17.7676 32.6252Z" fill="#1C5ED9"/>
<path fill-rule="evenodd" clip-rule="evenodd" d="M9.13153 14.7848C9.75376 15.3634 10.5793 15.5348 11.3771 15.5496C11.4898 15.5517 11.7323 15.6303 11.4533 15.7006C11.136 15.7804 10.7972 15.8334 11.3992 16.0001C12.0374 16.1769 12.6231 16.0643 12.7384 15.6154C12.8357 15.2362 12.4488 15.3283 12.3017 15.2289C12.0591 15.0652 12.238 14.8371 11.5168 14.4875C11.2849 14.3748 11.1117 14.2103 11.034 13.8325C11.0029 13.6813 10.9744 13.5433 10.7237 13.3998C10.2394 13.1228 10.4424 12.7739 10.2799 12.2881C9.82802 12.4758 9.82623 12.3607 9.56299 12.324C9.35594 12.295 9.38332 12.5392 9.42842 12.7373C9.57552 13.3832 9.63368 13.8694 9.1922 14.4411C9.10111 14.5589 8.96725 14.632 9.13153 14.7848Z" fill="#1C5ED9"/>
<path fill-rule="evenodd" clip-rule="evenodd" d="M7.38798 9.85332C7.54188 9.5119 7.90122 8.98467 8.32821 8.85367C8.38261 8.83689 8.41465 8.82155 8.44614 8.75997C8.64836 8.36393 8.85165 8.02661 9.33215 7.93612C9.48641 7.90703 9.54439 7.95182 9.59324 8.09746C9.80781 7.72837 9.96905 7.48725 10.3248 7.26843C10.5716 7.11637 10.8676 7.05265 11.0013 7.29645C11.1119 7.12922 11.2189 6.97252 11.3604 6.81938C10.1289 6.68463 8.98605 6.74174 8.28777 7.87222C8.20992 7.99841 8.20115 8.06498 8.06354 8.1162C7.1761 8.44692 7.10434 9.24757 7.24213 9.85957C7.27417 10.0022 7.33913 9.96202 7.38798 9.85332Z" fill="#1C5ED9"/>
<path fill-rule="evenodd" clip-rule="evenodd" d="M7.74971 11.6218C8.33131 11.5527 9.02154 11.1734 9.28532 10.651C8.63876 10.6053 7.67491 10.7872 7.74971 11.6218Z" fill="#1C5ED9"/>
<path fill-rule="evenodd" clip-rule="evenodd" d="M10.0478 9.25732C10.571 9.27302 11.7312 9.22287 11.8126 8.64175C11.6152 8.54019 11.0147 8.75401 10.714 8.85146C10.6134 8.88412 10.5682 8.90018 10.6684 8.81684C10.9817 8.55626 11.4112 8.55304 11.605 8.49343C10.957 8.33084 10.4041 8.65799 9.96776 9.12257C9.84643 9.25178 9.86952 9.25196 10.0478 9.25732Z" fill="#1C5ED9"/>
<path fill-rule="evenodd" clip-rule="evenodd" d="M8.53435 10.1209C9.05976 9.57338 9.02791 9.17983 9.09877 8.6801C9.15121 9.17412 9.10647 9.51769 8.95901 9.72901C9.64351 9.20089 9.34036 8.63691 9.30833 8.23926C8.62454 8.4902 8.46277 9.4845 8.53435 10.1209Z" fill="#1C5ED9"/>
<path fill-rule="evenodd" clip-rule="evenodd" d="M8.81714 10.1892C9.19294 10.5631 10.3633 10.2015 10.5924 9.60917C10.2663 9.6329 9.92111 9.70554 9.52992 9.90026C9.47104 9.92953 9.50146 9.87777 9.57286 9.82227C9.79477 9.64968 10.1956 9.5624 10.4725 9.55009C9.74788 9.26542 9.34148 9.83101 8.81714 10.1892Z" fill="#1C5ED9"/>
<path fill-rule="evenodd" clip-rule="evenodd" d="M9.78057 9.01799C10.5703 8.39529 10.4568 8.17915 10.5875 7.64175C10.6628 8.02798 10.5524 8.31854 10.4985 8.46168C10.809 8.22198 10.7827 7.71243 10.7595 7.5004C10.7482 7.39688 10.7272 7.36583 10.6014 7.41937C10.2489 7.57 9.70934 8.27695 9.78057 9.01799Z" fill="#1C5ED9"/>
<path fill-rule="evenodd" clip-rule="evenodd" d="M7.63795 11.0664C7.72617 10.944 7.79883 10.4228 7.84464 10.159C7.86182 10.061 7.89725 9.98321 7.91837 10.1139C7.96704 10.4153 7.85913 10.6912 7.80491 10.8437C8.28773 10.4146 8.2072 10.2004 8.18161 9.33998C8.18107 9.32017 8.18054 9.29982 8.17982 9.2793C7.46293 9.79206 7.36719 10.617 7.63795 11.0664Z" fill="#1C5ED9"/>
<path fill-rule="evenodd" clip-rule="evenodd" d="M12.441 7.52076C12.5712 7.49773 12.742 7.49149 12.9003 7.55342C13.0444 7.60964 12.959 7.61606 12.845 7.61232C12.3245 7.59554 11.8026 7.63498 11.5483 8.21878C12.2146 8.27108 12.9499 8.10831 13.3413 7.53789C13.187 7.40118 12.6827 7.31122 12.441 7.52076Z" fill="#1C5ED9"/>
<path fill-rule="evenodd" clip-rule="evenodd" d="M14.3715 14.1689C14.145 13.7129 14.4313 13.6145 14.3491 13.2915C14.2919 13.0668 14.0417 12.8672 13.8386 12.7489C13.7303 12.6859 13.7149 12.6722 13.8182 12.6047C13.9418 12.5239 14.027 12.3054 13.774 12.319C13.5827 12.3293 13.3601 12.3936 13.3638 12.634C13.3679 12.8899 13.7028 13.0455 13.8627 13.1419C14.2079 13.3499 14.201 13.551 14.1482 13.7361C14.0174 14.1928 14.3899 14.249 14.2795 14.5728C14.253 14.6502 14.2752 14.6699 14.3434 14.5835C14.4576 14.4387 14.4531 14.3334 14.3715 14.1689Z" fill="#1C5ED9"/>
<path fill-rule="evenodd" clip-rule="evenodd" d="M11.1192 8.13769C11.6668 7.8648 11.7017 7.5928 11.883 7.07896C11.9073 7.34025 11.8302 7.41914 11.7894 7.63063C12.1618 7.42253 12.202 6.92404 12.1029 6.55566C11.7768 6.66864 11.0882 7.53247 11.1192 8.13769Z" fill="#1C5ED9"/>
<path fill-rule="evenodd" clip-rule="evenodd" d="M9.69758 11.6211C9.85631 11.6193 9.84253 11.5818 9.85005 11.7403C9.85756 11.9042 9.86687 12.0551 10.0904 12.0368C10.294 12.02 10.4649 11.7956 10.3588 11.5895C10.2072 11.2948 10.1026 11.5502 9.83663 11.4719C9.60613 11.4039 9.66304 11.2325 9.51021 11.0205C9.41483 11.0867 9.35506 11.1508 9.30692 11.2431C9.15767 11.5286 9.46476 11.6238 9.69758 11.6211Z" fill="#1C5ED9"/>
<path fill-rule="evenodd" clip-rule="evenodd" d="M12.3398 7.26887C12.7998 7.10682 12.7046 7.12663 12.988 6.67294C12.9667 6.91906 12.9112 7.03025 12.8228 7.12484C13.2042 7.02257 13.2964 6.70703 13.2777 6.34668C12.7953 6.45055 12.3475 6.73701 12.3398 7.26887Z" fill="#1C5ED9"/>
<path fill-rule="evenodd" clip-rule="evenodd" d="M8.71944 12.67C8.19528 12.5204 8.07753 12.4929 7.91182 12.0319C7.86744 11.9089 7.71121 11.8675 7.67542 12.0762C7.60026 12.5127 8.02295 12.9029 8.59006 12.8133C8.72857 12.7915 8.83666 12.7035 8.71944 12.67Z" fill="#1C5ED9"/>
<path fill-rule="evenodd" clip-rule="evenodd" d="M8.12866 12.004C8.17107 12.2587 8.5866 12.4359 8.85396 12.359C9.01198 12.3135 8.96205 12.2813 8.87919 12.2282C8.71831 12.1253 8.58141 12.0043 8.44898 11.8683C8.34072 11.7568 8.08929 11.7677 8.12866 12.004Z" fill="#1C5ED9"/>
<path fill-rule="evenodd" clip-rule="evenodd" d="M13.1786 14.9417C13.5227 15.0063 13.4849 14.8769 13.5052 14.6233C13.488 14.1984 13.3783 14.4225 13.2868 14.5757C13.1464 14.8111 12.6943 14.8507 13.1786 14.9417Z" fill="#1C5ED9"/>
<path fill-rule="evenodd" clip-rule="evenodd" d="M8.63843 11.6789C8.74723 11.9213 8.98828 11.9557 9.31828 11.9191C9.23184 11.771 9.14362 11.6573 9.0409 11.5375C8.97343 11.4988 8.72629 11.5643 8.63843 11.6789Z" fill="#1C5ED9"/>
<path fill-rule="evenodd" clip-rule="evenodd" d="M7.20595 10.3118C7.11933 10.1895 7.06207 10.4248 7.06082 10.5176C7.05652 10.7974 7.10233 11.0018 7.28845 11.2188C7.36611 11.3093 7.40996 11.3049 7.39671 11.2092C7.36665 10.9872 7.33319 10.4915 7.20595 10.3118Z" fill="#1C5ED9"/>
<path fill-rule="evenodd" clip-rule="evenodd" d="M8.38051 13.0457C8.27761 13.0739 8.42775 13.2136 8.49218 13.2399C8.66021 13.3082 8.95442 13.2568 9.04998 13.1303C9.13606 13.0162 9.09865 12.9432 9.02528 12.9738C8.85581 13.0441 8.526 13.0082 8.38051 13.0457Z" fill="#1C5ED9"/>
<path fill-rule="evenodd" clip-rule="evenodd" d="M12.2782 8.54835C12.3147 9.0936 11.7241 9.38488 11.2594 9.4941C11.0223 10.1045 10.7646 10.1186 10.8195 10.4386C10.8712 10.7395 11.0033 10.92 11.2241 11.0979C11.652 11.4425 11.7719 11.7381 11.456 12.195C11.2381 12.5106 11.3592 12.6382 11.553 12.9187C11.6754 13.096 11.7622 13.2848 11.6804 13.5002C11.5448 13.8582 11.8227 14.0949 12.1388 14.1463C12.2506 14.1645 12.2383 14.1502 12.2028 14.0608C11.9766 13.4925 12.4172 13.3455 11.999 13.0148C11.6769 12.7365 11.7474 12.5648 11.9013 12.2643C12.016 12.0399 11.9967 11.9348 11.9249 11.8175C11.8046 11.6214 11.8596 11.4968 12.0146 11.6019C12.3689 11.8429 12.2493 12.0872 12.0917 12.3888C11.7796 12.986 12.5138 12.6867 12.3513 13.4811C12.2903 13.7826 12.4093 14.117 12.6096 14.369C12.7696 14.5704 13.0099 14.6639 13.1627 14.4474C13.3045 14.2461 13.3309 14.1518 13.317 13.9016C13.3127 13.8258 13.3148 13.7365 13.3605 13.6328C13.4328 13.4683 13.5518 13.2525 13.4874 13.621C13.4471 13.8511 13.4442 13.9523 13.5376 14.1238C13.6382 14.3128 13.7289 14.5315 13.6898 14.6705C13.6572 14.787 13.6094 14.8904 13.7438 14.8745C14.2187 14.8184 14.2112 14.4858 14.0244 14.1468C13.9351 13.985 13.9514 13.9817 14.0155 13.809C14.0727 13.6541 14.118 13.5054 13.9362 13.363C13.6983 13.1768 13.3505 13.1354 13.1971 12.7965C13.0113 12.3865 13.0888 12.0456 13.6434 11.8887C13.7755 11.8513 13.9102 11.6881 13.9052 11.5486C13.8979 11.3424 13.7007 11.3408 13.5416 11.414C13.2032 11.5698 12.9738 11.4406 12.6824 11.8488C12.5745 12.0001 12.4874 11.9633 12.5385 11.8277C12.5897 11.6917 12.62 11.5561 12.899 11.4484C13.1753 11.3419 13.2927 11.2814 13.3562 10.9858C13.4034 10.7665 13.5559 10.6935 13.701 10.7565C13.8118 10.8045 13.8684 10.8511 13.6982 10.8639C13.4342 10.8839 13.5546 11.185 13.7433 11.1782C14.3084 11.1575 14.5253 11.0706 14.2128 10.5186C14.0607 10.2498 13.8118 9.96582 13.6212 9.59619C13.5493 9.45662 13.5121 9.35685 13.5103 9.19266C13.5092 9.09431 13.5181 9.01668 13.4761 8.89335C13.3834 8.62028 13.2204 8.4211 13.0869 8.24512C12.7493 8.44751 12.5702 8.48892 12.2782 8.54835ZM13.193 9.8416C13.1556 10.1509 13.1468 10.2969 12.8544 10.2646C12.7656 10.2548 12.6613 10.1745 12.7692 10.1389C12.9371 10.0402 12.7658 9.89247 12.4995 9.98385C12.3173 10.0463 11.9047 10.0977 12.2338 9.83714C12.3547 9.7413 12.5094 9.66973 12.6504 9.62243C13.0001 9.50517 12.7408 9.34383 12.1672 9.63046C11.9782 9.72488 11.8252 9.74951 11.989 9.55728C12.3633 9.11769 12.8216 9.02078 13.1661 9.05023C13.4976 9.07825 13.2159 9.65116 13.193 9.8416Z" fill="#1C5ED9"/>
<path fill-rule="evenodd" clip-rule="evenodd" d="M11.1995 25.2727C11.8084 25.3024 12.0311 25.4653 12.69 25.3759C13.1347 25.3156 13.5042 25.2456 13.6631 25.257C14.1783 25.2936 14.2703 24.8872 13.7666 24.76C13.5241 24.6986 12.855 24.6695 13.1665 24.5924C13.4262 24.5281 13.955 24.6415 14.1264 24.6593C14.4917 24.697 14.5498 24.3907 14.3886 24.2933C14.2369 24.2017 13.8863 24.1091 13.6642 24.0491C13.5015 24.005 13.1669 23.9354 13.4183 23.8815C13.657 23.8301 14.0538 23.9383 14.309 24.0302C14.7088 24.1742 14.8385 23.8131 14.5753 23.6434C14.2739 23.4489 13.8016 23.2904 13.5137 23.2795C13.3632 23.2738 13.3229 23.184 13.555 23.1713C13.9613 23.1492 14.3272 23.3214 14.5912 23.4239C14.9274 23.5547 15.0484 23.1649 14.8351 23.0409C14.3772 22.7742 13.7599 22.5395 13.2306 22.6518C12.5592 22.7944 11.6017 23.3612 11.0665 23.6937C10.6798 23.9338 10.4752 24.5674 10.5171 25.0054C10.5339 25.1812 11.0189 25.2638 11.1995 25.2727Z" fill="#1C5ED9"/>
<path fill-rule="evenodd" clip-rule="evenodd" d="M13.5269 22.2023C13.8846 22.2109 14.0922 22.2699 14.4739 22.3974C14.769 21.392 15.3191 16.6634 13.6278 16.0332C14.1532 17.7673 14.1493 20.6904 13.5269 22.2023Z" fill="#1C5ED9"/>
<path fill-rule="evenodd" clip-rule="evenodd" d="M8.50932 17.9934C8.31211 17.4806 8.20653 17.3069 8.34791 17.9787C8.61473 19.247 9.33001 22.2922 11.0322 22.5005C11.3724 22.542 11.2253 22.4715 11.0639 22.3591C9.94812 21.5824 8.98803 19.2377 8.50932 17.9934Z" fill="#1C5ED9"/>
<path fill-rule="evenodd" clip-rule="evenodd" d="M12.3405 20.4727C11.0148 19.369 10.5018 17.5401 9.31869 16.5369C9.09124 16.3441 9.01733 16.3746 9.22062 16.6054C9.98028 17.4682 11.1864 20.6165 12.3881 20.7363C12.8246 20.7797 12.5381 20.637 12.3405 20.4727Z" fill="#1C5ED9"/>
<path fill-rule="evenodd" clip-rule="evenodd" d="M5.44439 20.9785C5.18741 20.7446 5.19976 20.797 5.3635 21.0665C5.72642 21.6643 6.16665 22.023 6.83379 22.3075C7.10026 22.421 7.22535 22.4151 6.95745 22.2347C6.37531 21.8426 5.94976 21.4381 5.44439 20.9785Z" fill="#1C5ED9"/>
<path fill-rule="evenodd" clip-rule="evenodd" d="M12.9326 18.5876C12.5065 18.5273 11.9307 18.3165 11.5502 17.9887C11.3503 17.8164 11.3809 17.9337 11.494 18.0865C11.8099 18.5137 12.4709 18.9389 13.0092 18.7727C13.1968 18.7147 13.1862 18.6235 12.9326 18.5876Z" fill="#1C5ED9"/>
<path fill-rule="evenodd" clip-rule="evenodd" d="M11.1138 12.1014C11.0005 12.577 10.7466 13.1135 11.2188 13.2954C11.4407 13.3809 11.423 13.2768 11.3754 13.0577C11.2693 12.5695 11.0162 12.6779 11.3618 12.0525C11.532 11.7446 11.3548 11.5058 11.1419 11.3434C10.7845 11.0705 10.5066 10.9588 10.438 10.4141C10.3085 10.4735 10.1807 10.5204 10.0562 10.547C10.125 11.0857 10.2439 11.1117 10.428 11.2549C10.6888 11.4574 10.8432 11.6468 10.6997 11.9813C10.6397 12.1212 10.539 12.3411 10.6621 12.5347C10.7424 12.6616 10.7578 12.5688 10.7943 12.4546C10.8244 12.36 10.8643 12.2395 10.9146 12.1233C11.0343 11.8469 11.0222 11.6595 10.8686 11.4844C10.7859 11.39 10.767 11.3152 10.7866 11.2509C10.8081 11.181 10.8629 11.2345 10.8899 11.3159C10.9661 11.5442 11.2727 11.4342 11.1138 12.1014Z" fill="#1C5ED9"/>
<path d="M21.8962 19.6972L20.3518 20.7896C19.9699 21.0284 19.6856 21.9151 19.5893 22.7957C19.5605 23.0599 19.5866 23.7682 20.0157 23.4288C20.8573 22.7632 21.5513 21.9654 22.3674 21.2555C22.6414 21.0172 22.9017 20.8905 23.2688 20.9479C24.2935 21.108 25.1129 21.0234 26.0517 20.596C26.4556 20.412 26.7462 20.2581 27.0068 20.1237C27.2391 20.004 27.3625 19.8424 27.2834 19.6763C27.2691 19.6459 27.2593 19.6081 27.2799 19.5756C27.3131 19.5231 27.3146 19.4494 27.2913 19.3966C27.2795 19.3472 27.2908 19.2713 27.3309 19.2338C27.4096 19.1596 27.3779 18.9774 27.2249 18.9611C27.17 18.9568 27.1564 18.9051 27.1346 18.8512C27.2366 18.4741 26.6932 18.6325 26.5143 18.6856C25.5184 18.9809 24.4592 19.1614 23.9393 19.1528C23.6201 19.1475 23.7374 19.0309 24.098 18.9611C24.4017 18.9024 24.6587 18.8091 24.8262 18.7021C25.1167 18.5167 25.1093 18.2067 24.7901 18.3156C24.1861 18.5217 23.9153 18.5165 23.2983 18.6183C22.7734 18.7046 22.2487 18.8271 22.1333 19.3923C22.0973 19.5683 22.034 19.6094 21.8962 19.6972Z" fill="#1C5ED9"/>
<path d="M25.3716 19.2675C25.6804 19.2366 26.4737 18.9689 27.1346 18.8511C27.2143 18.8288 27.4628 18.8242 27.4854 18.9027C27.5079 18.9812 27.3401 18.9455 27.2604 18.9677C26.9127 18.9088 25.7919 19.2586 25.5 19.4513C25.3809 19.53 25.363 19.4356 25.308 19.3862C25.2436 19.3285 25.1881 19.2859 25.3716 19.2675Z" fill="white"/>
<path d="M25.6231 19.6774C26.2215 19.4955 26.865 19.1721 27.3498 19.2146C27.5889 19.148 27.5288 19.2517 27.505 19.2583C27.4554 19.2722 27.3122 19.4493 27.2938 19.4027C27.2022 19.1707 26.0422 19.5551 25.6918 19.8678C25.5724 19.9742 25.5483 19.8366 25.5345 19.8041C25.5216 19.7739 25.4873 19.7188 25.6231 19.6774Z" fill="white"/>
<path d="M25.1036 19.0456C24.9151 18.9367 24.6188 19.052 24.6873 19.0916C25.1626 19.2262 25.5329 19.8155 25.5864 20.299C25.6154 20.5619 25.6897 20.4928 25.7242 20.2697C25.7915 19.8334 25.4661 19.2717 25.1036 19.0456Z" fill="white"/>
<path d="M24.1842 20.005C24.5102 19.8156 24.5603 19.3651 24.1799 19.1279C23.9913 19.0191 23.7676 19.0997 23.8361 19.1393C24.1636 19.323 24.3853 19.7929 23.8971 19.9632C23.6027 20.0658 23.89 20.1759 24.1842 20.005Z" fill="white"/>
<path d="M25.729 20.0661C26.304 19.8796 27.1728 19.4593 27.3007 19.5897C27.7934 19.4523 27.3455 19.8342 27.3048 19.7448C27.2372 19.5963 26.1731 20.0072 25.7241 20.2694C25.5144 20.3916 25.5532 20.1232 25.729 20.0661Z" fill="white"/>
<path fill-rule="evenodd" clip-rule="evenodd" d="M6.78826 30.1343C6.43626 29.86 6.12631 29.4045 6.22044 28.4716C6.25104 28.1677 6.35447 28.2245 6.49281 28.4572C7.82369 30.6949 11.2199 29.7974 12.6199 26.7226C13.1077 25.7575 13.0921 25.853 13.6945 25.7256C13.4105 27.3681 12.44 29.9 11.1719 32.2406C9.90244 31.8656 7.85161 30.9634 6.78826 30.1343Z" fill="#1C5ED9"/>
<path fill-rule="evenodd" clip-rule="evenodd" d="M11.9624 32.4499C13.0096 30.1959 13.6984 27.6891 14.1138 25.7851C14.1797 25.4834 14.3178 25.4092 14.5227 25.1009C14.7527 24.7552 15.0349 24.2541 15.0889 23.8611C15.4146 23.3922 15.3958 22.9731 14.9288 22.6356C15.1453 21.5576 15.4774 19.4354 14.813 17.0127C16.9622 18.4867 15.6376 28.2252 14.7382 32.8239C13.7865 32.7876 12.8584 32.6602 11.9624 32.4499Z" fill="#1C5ED9"/>
<path fill-rule="evenodd" clip-rule="evenodd" d="M11.0002 25.641C10.7924 26.1898 10.4492 26.6447 10.2914 26.8246C10.1199 27.0203 9.98034 26.7997 10.0029 26.44C10.0467 25.7379 10.3064 25.4721 11.0002 25.641Z" fill="#1C5ED9"/>
<path fill-rule="evenodd" clip-rule="evenodd" d="M11.0002 25.6411C10.7924 26.1897 10.4492 26.6446 10.2914 26.8245C10.1201 27.0202 9.98034 26.7996 10.0029 26.4399C10.0467 25.7378 10.3064 25.472 11.0002 25.6411Z" fill="#1C5ED9"/>
<path fill-rule="evenodd" clip-rule="evenodd" d="M13.2035 32.6848C13.8048 30.988 14.1878 29.2805 14.3651 27.8352C14.461 26.7461 14.1037 27.729 13.9796 28.248C13.5598 30.0024 13.2087 31.3405 12.6785 32.5989C12.8526 32.6305 13.0274 32.6594 13.2035 32.6848Z" fill="white"/>
</svg>
